<svg width="108" height="32" viewBox="0 0 108 32" fill="none" xmlns="http://www.w3.org/2000/svg">
<path d="M27.9802 13.6146C27.9659 13.3476 27.9444 13.0853 27.9157 12.8254C27.7009 10.8631 27.2355 8.32145 25.9275 6.78119C25.412 6.17319 24.832 5.93238 24.1875 5.51274C23.4667 5.04303 22.9106 4.35874 22.3497 3.71974C20.3853 1.47849 17.724 1.04455 14.8765 0.777508C14.4278 0.734591 13.9647 0.691673 13.5041 0.636834L12.6639 0.54623C11.6543 0.438937 10.6112 0.326874 9.58253 0.224349C8.93809 0.162357 8.2101 0.0908279 7.49167 0.0336046C7.48451 0.0336046 7.47974 0.0336046 7.47257 0.0336046L7.33653 0.0264517C6.36509 -0.0283873 4.73966 -0.118991 4.13818 1.159L4.11431 1.2186C3.66798 2.43222 4.62509 3.71974 5.32443 4.65916C5.87101 5.40306 6.44147 6.21134 7.05965 6.89325C7.39858 7.35343 8.17907 7.86128 7.78764 8.49074C5.9832 10.3743 6.06435 13.1211 6.33645 15.3146C6.58229 17.1315 6.99521 20.1738 9.29134 21.5877C9.97635 21.9978 10.7091 22.2148 11.4586 22.3102C11.9837 24.2462 12.5398 26.2085 13.1747 28.1255C13.1771 28.1327 13.1795 28.1422 13.1842 28.1493C13.368 28.6429 13.5614 29.0912 13.7619 29.4822C14.1318 30.2022 14.5161 30.7125 14.9338 31.0439C15.3491 31.3825 15.8288 31.485 16.2155 31.5684L16.2609 31.578C16.4757 31.6233 16.6953 31.6805 16.9268 31.7377C17.2418 31.8188 17.5688 31.9022 17.8958 31.9595C18.0462 31.9857 18.187 32 18.3231 32C18.7121 32 19.0344 31.8903 19.2897 31.6686C19.2993 31.659 19.3088 31.6519 19.3184 31.6424C20.1132 30.877 19.822 29.4249 19.6669 28.6453L19.6525 28.5833C19.1083 26.7188 18.5928 24.8042 18.0963 22.9516C17.9818 22.5272 17.8672 22.1004 17.7526 21.6712C18.1536 21.6044 18.557 21.5353 18.958 21.4685C18.9628 21.4685 18.9675 21.4685 18.9747 21.4661C19.3279 21.397 19.6883 21.335 20.0726 21.2682C22.352 20.8724 24.9322 20.4242 26.5839 18.593C27.794 17.2507 28.0733 15.3814 27.9849 13.6194L27.9802 13.6146ZM19.8148 19.8162C19.4282 19.883 19.0606 19.9473 18.6978 20.0165C17.681 20.1905 16.6642 20.3622 15.657 20.5291C15.5233 20.5506 15.3873 20.572 15.2512 20.5935C13.4898 20.8724 11.492 21.1896 10.0527 20.3264C8.48698 19.3632 8.07644 17.2197 7.79241 15.1167C7.56089 13.2594 7.47257 10.9442 8.83784 9.50884C8.88319 9.46592 8.92854 9.42539 8.97389 9.38724C9.91907 10.5389 10.9597 11.4497 12.5398 11.9885C13.201 12.2269 13.9218 12.401 14.8097 12.5393C14.8144 12.5393 14.8192 12.5393 14.824 12.5393C16.8003 12.8016 18.7837 12.9923 20.7696 13.164C22.173 13.2832 23.6624 13.5145 25.1041 13.5073C25.9705 13.5026 26.6579 14.2584 26.5409 15.1167C26.3858 16.266 25.7843 17.4343 24.9895 18.078C23.555 19.2392 21.5763 19.5134 19.8172 19.8186L19.8148 19.8162ZM18.0796 30.5074C17.724 30.5384 17.2013 30.3787 16.8146 30.2857C16.0341 30.1164 15.509 29.7135 15.1558 29.0435C14.5614 28.0277 14.244 26.8737 13.8931 25.7603C13.7786 25.3812 13.6449 24.9496 13.6759 24.5634C13.738 23.407 15.5806 23.7765 16.3349 23.9697C16.9912 24.2081 17.175 24.9472 17.366 25.6554C17.4638 26.3826 19.0534 30.4311 18.1107 30.505L18.082 30.5098L18.0796 30.5074ZM5.48435 1.75269C5.69678 1.4022 6.66821 1.45704 7.25537 1.49042L7.38665 1.49757C8.08599 1.55241 8.80681 1.62155 9.43932 1.68354C10.4609 1.78369 11.5015 1.89575 12.5088 2.00304L13.3418 2.09126C13.8096 2.1461 14.2822 2.1914 14.7405 2.23432C17.292 2.47513 19.7027 2.70164 21.3615 4.73784C21.3639 4.74261 21.3687 4.74499 21.3711 4.74976C21.8389 5.29815 22.278 5.9133 22.7053 6.507C22.827 6.67628 22.9487 6.84557 23.0657 7.0077L23.0943 7.04585C23.4452 7.5394 24.0348 8.36437 24.0037 8.82216V8.82931C23.9942 8.92945 23.9655 8.97237 23.9178 9.0129C23.7555 9.15119 23.3115 9.27518 22.5478 9.21557C21.2422 9.07489 19.9103 8.95568 18.6214 8.83885C16.6977 8.66718 14.707 8.48836 12.7809 8.23323C11.9908 8.11164 11.3559 7.95904 10.7879 7.75399C10.7831 7.75399 10.7783 7.75161 10.7736 7.74922C9.01685 7.15314 8.05735 5.95145 6.89496 4.3182C6.78278 4.1513 6.64673 3.97009 6.50591 3.77935C6.0739 3.19758 5.35546 2.23194 5.48674 1.75269H5.48435Z" fill="url(#paint0_linear_1019_33137)"/>
<path d="M34.3492 21.7916V11.9155H32.3V9.79625H34.3871V7.298C34.3871 6.52565 34.5864 5.94876 34.9848 5.56973C35.3833 5.19071 35.9454 5 36.6759 5H39.7591V7.11922H36.9557V9.79863H39.5219V11.9178H36.9771V21.794H34.3516L34.3492 21.7916ZM42.9017 8.3588C42.4771 8.3588 42.1119 8.20862 41.8083 7.90826C41.5023 7.6079 41.3506 7.23841 41.3506 6.79978C41.3506 6.36116 41.5 6.00597 41.7988 5.70084C42.0977 5.39333 42.4653 5.24077 42.9017 5.24077C43.3381 5.24077 43.6915 5.39095 43.995 5.69131C44.301 5.99167 44.4528 6.36116 44.4528 6.79978C44.4528 7.23841 44.3034 7.5936 44.0045 7.89873C43.7057 8.20624 43.3381 8.3588 42.9017 8.3588ZM41.5877 21.7916V9.79863H44.2132V21.7916H41.5877Z" fill="#181D27"/>
<path d="M46.234 21.7916V9.7986H48.8002V11.658H48.8808C49.2247 10.9929 49.7062 10.478 50.3228 10.118C50.9395 9.75807 51.6581 9.57928 52.4811 9.57928C53.3563 9.57928 54.1224 9.78906 54.7793 10.2086C55.4363 10.6282 55.9486 11.2122 56.321 11.9583C56.691 12.7045 56.8783 13.565 56.8783 14.5376V21.794H54.2528V15.0168C54.2528 14.0704 54.018 13.3267 53.546 12.7879C53.0741 12.2492 52.4147 11.9774 51.568 11.9774C50.7213 11.9774 50.0572 12.2468 49.5781 12.7879C49.1014 13.3267 48.8618 14.0704 48.8618 15.0168V21.794H46.2363L46.234 21.7916Z" fill="#181D27"/>
<path d="M62.1365 21.7915C61.4344 21.7915 60.8842 21.6056 60.4857 21.2313C60.0873 20.8595 59.8881 20.2921 59.8881 19.5317V11.9154H57.9385V9.79616H59.907V6.19897H62.4922V9.79616H65.1581V11.9154H62.5136V19.6723H65.4166V21.7915H62.1341H62.1365Z" fill="#181D27"/>
<path d="M68.533 8.35882C68.1085 8.35882 67.7433 8.20864 67.4397 7.90828C67.1337 7.60792 66.9819 7.23843 66.9819 6.7998C66.9819 6.36118 67.1313 6.00599 67.4302 5.70086C67.729 5.39335 68.0966 5.24078 68.533 5.24078C68.9694 5.24078 69.3228 5.39096 69.6264 5.69133C69.9324 5.99169 70.0842 6.36118 70.0842 6.7998C70.0842 7.23843 69.9347 7.59362 69.6359 7.89874C69.3371 8.20626 68.9694 8.35882 68.533 8.35882ZM67.2191 21.7917V9.79865H69.8446V21.7917H67.2191Z" fill="#181D27"/>
<path d="M75.9044 21.7916L71.27 9.79858H73.9951L77.3156 18.8142H77.3962L80.6574 9.79858H83.3018L78.6675 21.7916H75.902H75.9044Z" fill="#181D27"/>
<path d="M86.0388 8.35882C85.6143 8.35882 85.249 8.20864 84.9454 7.90828C84.6395 7.60792 84.4877 7.23843 84.4877 6.7998C84.4877 6.36118 84.6371 6.00599 84.9359 5.70086C85.2348 5.39335 85.6024 5.24078 86.0388 5.24078C86.4752 5.24078 86.8286 5.39096 87.1322 5.69133C87.4381 5.99169 87.5899 6.36118 87.5899 6.7998C87.5899 7.23843 87.4405 7.59362 87.1417 7.89874C86.8428 8.20626 86.4752 8.35882 86.0388 8.35882ZM84.7249 21.7917V9.79865H87.3504V21.7917H84.7249Z" fill="#181D27"/>
<path d="M94.4632 22.03C93.3627 22.03 92.3785 21.7726 91.5104 21.26C90.6424 20.7475 89.9593 20.0252 89.4612 19.0908C88.9632 18.1587 88.7141 17.0598 88.7141 15.7916C88.7141 14.5234 88.9632 13.4054 89.4612 12.4733C89.9593 11.5412 90.6424 10.8213 91.5104 10.3135C92.3785 9.80817 93.3627 9.5531 94.4632 9.5531C95.5637 9.5531 96.5836 9.80579 97.4469 10.3135C98.3078 10.8213 98.9838 11.5388 99.4747 12.4733C99.9657 13.4054 100.21 14.5114 100.21 15.7916C100.21 17.0717 99.9633 18.1611 99.4747 19.1003C98.9838 20.0395 98.3055 20.7618 97.435 21.2696C96.567 21.775 95.5756 22.03 94.4609 22.03H94.4632ZM94.4632 19.6724C95.419 19.6724 96.178 19.3196 96.7401 18.614C97.3046 17.9084 97.5844 16.9692 97.5844 15.7963C97.5844 14.6235 97.3022 13.6676 96.7401 12.9667C96.1756 12.2659 95.4167 11.9179 94.4632 11.9179C93.5098 11.9179 92.7817 12.2683 92.2053 12.9667C91.629 13.6676 91.3397 14.6092 91.3397 15.7963C91.3397 16.9835 91.629 17.9084 92.2053 18.614C92.7817 19.3196 93.5335 19.6724 94.4632 19.6724Z" fill="#181D27"/>
<path d="M102.231 22.03C101.74 22.03 101.325 21.856 100.988 21.5103C100.649 21.1647 100.48 20.7451 100.48 20.2517C100.48 19.7582 100.649 19.3387 100.988 18.993C101.327 18.6473 101.74 18.4733 102.231 18.4733C102.722 18.4733 103.139 18.6473 103.483 18.993C103.827 19.3387 104 19.7606 104 20.2517C104 20.7427 103.827 21.1647 103.483 21.5103C103.139 21.856 102.719 22.03 102.231 22.03Z" fill="#181D27"/>
<defs>
<linearGradient id="paint0_linear_1019_33137" x1="3.99974" y1="15.9965" x2="27.9945" y2="15.9965" gradientUnits="userSpaceOnUse">
<stop stop-color="#0055FF"/>
<stop offset="0.77" stop-color="#0092FF"/>
</linearGradient>
</defs>
</svg>
